<?xml version="1.0" standalone="no"?>
<!DOCTYPE svg PUBLIC "-//W3C//DTD SVG 1.1//EN" "http://www.w3.org/Graphics/SVG/1.1/DTD/svg11.dtd" >
<svg xmlns="http://www.w3.org/2000/svg" width="800" height="200">
  <title>DUMINGHONG</title>
  <desc>DUMINGHONG text extracted from webfont</desc>
  
  <!-- 总览: 所有字母总宽度=3478, 高度=700 -->
  <!-- 字母宽度分布: D(283) + U(280) + M(395) + I(102) + N(286) + G(283) + H(286) + O(283) -->
  <!-- D: 宽度=283, 高度=700 (从x=04到x=836, y=0到y=700) -->
  <!-- D的孔径: 宽度=79, 高度=522 (从x=026到x1815, y=89到y=611) -->
  <path
    d="M0 0 l182 0 q43 0 72 25 q29 25 29 73 l0 504 q0 48 -29 73 q-29 25 -72 25 l-182 0 l0 -700 ZM153 611 q28 0 28 -28 l0 -466 q0 -28 -28 -28 l-51 0 l0 522 l51 0 Z"
  />

  <!-- U: 宽度=280, 高度=700 (从x=0到x=280, y=0到y=700) -->
  <path
    d="M0 0 l0 602 q0 48 29 73 q29 25 72 25 l78 0 q42 0 71.5 -25 q29.5 -25 29.5 -73 l0 -602 l-102 0 l0 583 q0 14 -8 21 q-8 7 -20 7 l-23 0 q-28 0 -28 -28 l0 -583 l-99 0 Z"
  />

  <!-- M: 宽度=395, 高度=700 (从x=0到x=395, y=0到y=700) -->
  <path
    d="M0 0 l0 700 l96 0 l0 -502 l62 502 l80 0 l62 -509 l0 509 l95 0 l0 -700 l-144 0 l-51 409 l-50 -409 Z"
  />

  <!-- I: 宽度=102, 高度=700 (从x=0到x=102, y=0到y=700) -->
  <path d="M0 0 l0 700 l102 0 l0 -700 l-102 0 Z" />

  <!-- N: 宽度=286, 高度=700 (从x=0到x=286, y=0到y=700) -->
  <path
    d="M0 700 l0 0 l0 -700 l120 0 l75 374 l0 -374 l91 0 l0 700 l-97 0 l-99 -469 l0 469 Z"
  />

  <!-- G: 宽度=283, 高度=700 (从x=0到x=283, y=0到y=700) -->
  <path
    d="M101 0 l81 0 q43 0 72 25 q29 25 29 73 l0 150 l-102 16 l0 -147 q0 -28 -28 -28 l-23 0 q-12 0 -20 7 q-8 7 -8 21 l0 466 q0 14 8 21 q8 7 20 7 l23 0 q28 0 28 -28 l0 -154 l-48 0 l0 -89 l150 0 l0 360 l-62 0 l-16 -38 q-11 20 -31.5 29 q-20.5 9 -45.5 9 l-27 0 q-42 0 -71.5 -25 q-29.5 -25 -29.5 -73 l0 -504 q0 -48 29.5 -73 q29.5 -25 71.5 -25 Z"
  />

  <!-- H: 宽度=286, 高度=700 (从x=0到x=286, y=0到y=700) -->
  <path
    d="M184 295 l0 -295 l102 0 l0 700 l-102 0 l0 -316 l-82 0 l0 316 l-102 0 l0 -700 l102 0 l0 295 l82 0 Z"
  />

  <!-- O: 宽度=283, 高度=700 (从x=0到x=283, y=0到y=700) -->
  <path
    d="M283 602 q0 48 -29 73 q-29 25 -72 25 l-81 0 q-42 0 -71.5 -25 q-29.5 -25 -29.5 -73 l0 -504 q0 -48 29.5 -73 q29.5 -25 71.5 -25 l81 0 q43 0 72 25 q29 25 29 73 l0 504 ZM102 583 q0 14 8 21 q8 7 20 7 l23 0 q28 0 28 -28 l0 -466 q0 -28 -28 -28 l-23 0 q-12 0 -20 7 q-8 7 -8 21 l0 466 Z"
  />
        
</svg>